<?xml version="1.0" standalone="no"?>
<!DOCTYPE svg PUBLIC "-//W3C//DTD SVG 1.1//EN" "http://www.w3.org/Graphics/SVG/1.1/DTD/svg11.dtd" >
<svg>
<metadata>
Created by FontForge 20120731 at Sun Oct 26 14:19:08 2014
 By Ana Isabel Carvalho,,,
This Font Software is licensed under the SIL Open Font License, Version 1.1.
You should have received a copy of the license along with this Font Software
either in stand-alone text files, human-readable headers or in the appropriate
machine-readable metadata fields within text or binary files.

If this is not the case, go to http://scripts.sil.org/OFL for all
the details including a FAQ.

This program is distributed in the hope that it will be useful, but WITHOUT ANY
WARRANTY; without even the implied warranty of MERCHANTABILITY or FITNESS FOR A
PARTICULAR PURPOSE. See the SIL Open Font License for more details.
</metadata>
<defs>
<font id="Mozblock-Regular" horiz-adv-x="875" >
  <font-face 
    font-family="Mozblock"
    font-weight="400"
    font-stretch="normal"
    units-per-em="1000"
    panose-1="2 0 5 9 0 0 0 0 0 0"
    ascent="800"
    descent="-200"
    x-height="750"
    cap-height="1000"
    bbox="50 0 825 1000"
    underline-thickness="125"
    underline-position="246"
    unicode-range="U+0020-00A0"
  />
<missing-glyph 
d="M50 0v533h775v-533h-775zM100 50h675v433h-675v-433z" />
    <glyph glyph-name=".notdef" 
d="M50 0v533h775v-533h-775zM100 50h675v433h-675v-433z" />
    <glyph glyph-name="space" unicode=" " 
 />
    <glyph glyph-name="zero" unicode="0" 
d="M381 500c-4 0 -6 2 -6 6v238c0 4 2 6 6 6h113c4 0 6 -2 6 -6v-238c0 -4 -2 -6 -6 -6h-113zM131 250c-4 0 -6 2 -6 6v738c0 4 2 6 6 6h613c4 0 6 -2 6 -6v-738c0 -4 -2 -6 -6 -6h-613zM625 875h-375v-500h375v500z" />
    <glyph glyph-name="one" unicode="1" 
d="M256 875c-4 0 -6 2 -6 6v113c0 4 2 6 6 6h238c4 0 6 -2 6 -6v-738c0 -4 -2 -6 -6 -6h-113c-4 0 -6 2 -6 6v619h-119z" />
    <glyph glyph-name="two" unicode="2" 
d="M131 875c-4 0 -6 2 -6 6v113c0 4 2 6 6 6h613c4 0 6 -2 6 -6v-488c0 -4 -2 -6 -6 -6h-494v-125h494c4 0 6 -2 6 -6v-113c0 -4 -2 -6 -6 -6h-613c-4 0 -6 2 -6 6v363c0 4 2 6 6 6h494v250h-494z" />
    <glyph glyph-name="three" unicode="3" 
d="M131 875c-4 0 -6 2 -6 6v113c0 4 2 6 6 6h613c4 0 6 -2 6 -6v-738c0 -4 -2 -6 -6 -6h-613c-4 0 -6 2 -6 6v113c0 4 2 6 6 6h494v125h-494c-4 0 -6 2 -6 6v113c0 4 2 6 6 6h494v250h-494z" />
    <glyph glyph-name="four" unicode="4" 
d="M131 250c-4 0 -6 2 -6 6v738c0 4 2 6 6 6h113c4 0 6 -2 6 -6v-369h125v119c0 4 2 6 6 6h113c4 0 6 -2 6 -6v-119h119c4 0 6 -2 6 -6v-113c0 -4 -2 -6 -6 -6h-119v-244c0 -4 -2 -6 -6 -6h-113c-4 0 -6 2 -6 6v244h-125v-244c0 -4 -2 -6 -6 -6h-113z" />
    <glyph glyph-name="five" unicode="5" 
d="M131 625c-4 0 -6 2 -6 6v363c0 4 2 6 6 6h613c4 0 6 -2 6 -6v-113c0 -4 -2 -6 -6 -6h-494v-125h494c4 0 6 -2 6 -6v-488c0 -4 -2 -6 -6 -6h-613c-4 0 -6 2 -6 6v238c0 4 2 6 6 6h113c4 0 6 -2 6 -6v-119h375v250h-494z" />
    <glyph glyph-name="six" unicode="6" 
d="M131 250c-4 0 -6 2 -6 6v738c0 4 2 6 6 6h613c4 0 6 -2 6 -6v-113c0 -4 -2 -6 -6 -6h-494v-125h494c4 0 6 -2 6 -6v-488c0 -4 -2 -6 -6 -6h-613zM625 625h-375v-250h375v250z" />
    <glyph glyph-name="seven" unicode="7" 
d="M131 875c-4 0 -6 2 -6 6v113c0 4 2 6 6 6h488c4 0 6 -2 6 -6v-244h119c4 0 6 -2 6 -6v-113c0 -4 -2 -6 -6 -6h-119v-369c0 -4 -2 -6 -6 -6h-113c-4 0 -6 2 -6 6v369h-119c-4 0 -6 2 -6 6v113c0 4 2 6 6 6h119v125h-369z" />
    <glyph glyph-name="eight" unicode="8" 
d="M131 250c-4 0 -6 2 -6 6v738c0 4 2 6 6 6h613c4 0 6 -2 6 -6v-738c0 -4 -2 -6 -6 -6h-613zM625 875h-375v-125h375v125zM625 625h-375v-250h375v250z" />
    <glyph glyph-name="nine" unicode="9" 
d="M131 625c-4 0 -6 2 -6 6v363c0 4 2 6 6 6h613c4 0 6 -2 6 -6v-738c0 -4 -2 -6 -6 -6h-113c-4 0 -6 2 -6 6v369h-494zM625 875h-375v-125h375v125z" />
    <glyph glyph-name="A" unicode="A" 
d="M131 250c-4 0 -6 2 -6 6v738c0 4 2 6 6 6h613c4 0 6 -2 6 -6v-738c0 -4 -2 -6 -6 -6h-113c-4 0 -6 2 -6 6v244h-375v-244c0 -4 -2 -6 -6 -6h-113zM625 875h-375v-250h375v250z" />
    <glyph glyph-name="B" unicode="B" 
d="M131 250c-4 0 -6 2 -6 6v738c0 4 2 6 6 6h488c4 0 6 -2 6 -6v-244h119c4 0 6 -2 6 -6v-488c0 -4 -2 -6 -6 -6h-613zM500 875h-250v-125h250v125zM625 625h-375v-250h375v250z" />
    <glyph glyph-name="C" unicode="C" 
d="M131 250c-4 0 -6 2 -6 6v738c0 4 2 6 6 6h613c4 0 6 -2 6 -6v-113c0 -4 -2 -6 -6 -6h-494v-500h494c4 0 6 -2 6 -6v-113c0 -4 -2 -6 -6 -6h-613z" />
    <glyph glyph-name="D" unicode="D" 
d="M631 375c-4 0 -6 2 -6 6v488c0 4 2 6 6 6h113c4 0 6 -2 6 -6v-488c0 -4 -2 -6 -6 -6h-113zM131 250c-4 0 -6 2 -6 6v738c0 4 2 6 6 6h488c4 0 6 -2 6 -6v-113c0 -4 -2 -6 -6 -6h-369v-500h369c4 0 6 -2 6 -6v-113c0 -4 -2 -6 -6 -6h-488z" />
    <glyph glyph-name="E" unicode="E" 
d="M131 250c-4 0 -6 2 -6 6v738c0 4 2 6 6 6h613c4 0 6 -2 6 -6v-113c0 -4 -2 -6 -6 -6h-494v-125h494c4 0 6 -2 6 -6v-113c0 -4 -2 -6 -6 -6h-494v-250h494c4 0 6 -2 6 -6v-113c0 -4 -2 -6 -6 -6h-613z" />
    <glyph glyph-name="F" unicode="F" 
d="M131 250c-4 0 -6 2 -6 6v738c0 4 2 6 6 6h613c4 0 6 -2 6 -6v-113c0 -4 -2 -6 -6 -6h-494v-125h494c4 0 6 -2 6 -6v-113c0 -4 -2 -6 -6 -6h-494v-369c0 -4 -2 -6 -6 -6h-113z" />
    <glyph glyph-name="G" unicode="G" 
d="M506 500c-4 0 -6 2 -6 6v113c0 4 2 6 6 6h238c4 0 6 -2 6 -6v-363c0 -4 -2 -6 -6 -6h-613c-4 0 -6 2 -6 6v738c0 4 2 6 6 6h613c4 0 6 -2 6 -6v-113c0 -4 -2 -6 -6 -6h-494v-500h375v125h-119z" />
    <glyph glyph-name="H" unicode="H" 
d="M131 250c-4 0 -6 2 -6 6v738c0 4 2 6 6 6h113c4 0 6 -2 6 -6v-369h375v369c0 4 2 6 6 6h113c4 0 6 -2 6 -6v-738c0 -4 -2 -6 -6 -6h-113c-4 0 -6 2 -6 6v244h-375v-244c0 -4 -2 -6 -6 -6h-113z" />
    <glyph glyph-name="I" unicode="I" 
d="M256 875c-4 0 -6 2 -6 6v113c0 4 2 6 6 6h363c4 0 6 -2 6 -6v-113c0 -4 -2 -6 -6 -6h-119v-500h119c4 0 6 -2 6 -6v-113c0 -4 -2 -6 -6 -6h-363c-4 0 -6 2 -6 6v113c0 4 2 6 6 6h119v500h-119z" />
    <glyph glyph-name="J" unicode="J" 
d="M381 875c-4 0 -6 2 -6 6v113c0 4 2 6 6 6h363c4 0 6 -2 6 -6v-113c0 -4 -2 -6 -6 -6h-119v-619c0 -4 -2 -6 -6 -6h-488c-4 0 -6 2 -6 6v238c0 4 2 6 6 6h113c4 0 6 -2 6 -6v-119h250v500h-119z" />
    <glyph glyph-name="K" unicode="K" 
d="M631 875c-4 0 -6 2 -6 6v113c0 4 2 6 6 6h113c4 0 6 -2 6 -6v-113c0 -4 -2 -6 -6 -6h-113zM506 625c-4 0 -6 2 -6 6v238c0 4 2 6 6 6h113c4 0 6 -2 6 -6v-238c0 -4 -2 -6 -6 -6h-113zM131 250c-4 0 -6 2 -6 6v738c0 4 2 6 6 6h113c4 0 6 -2 6 -6v-369h244c4 0 6 -2 6 -6
v-113c0 -4 -2 -6 -6 -6h-244v-244c0 -4 -2 -6 -6 -6h-113zM506 250c-4 0 -6 2 -6 6v238c0 4 2 6 6 6h113c4 0 6 -2 6 -6v-119h119c4 0 6 -2 6 -6v-113c0 -4 -2 -6 -6 -6h-238z" />
    <glyph glyph-name="L" unicode="L" 
d="M131 250c-4 0 -6 2 -6 6v738c0 4 2 6 6 6h113c4 0 6 -2 6 -6v-619h494c4 0 6 -2 6 -6v-113c0 -4 -2 -6 -6 -6h-613z" />
    <glyph glyph-name="M" unicode="M" 
d="M506 875c-4 0 -6 2 -6 6v113c0 4 2 6 6 6h238c4 0 6 -2 6 -6v-738c0 -4 -2 -6 -6 -6h-113c-4 0 -6 2 -6 6v619h-119zM381 625c-4 0 -6 2 -6 6v238c0 4 2 6 6 6h113c4 0 6 -2 6 -6v-238c0 -4 -2 -6 -6 -6h-113zM131 250c-4 0 -6 2 -6 6v738c0 4 2 6 6 6h238c4 0 6 -2 6 -6
v-113c0 -4 -2 -6 -6 -6h-119v-619c0 -4 -2 -6 -6 -6h-113z" />
    <glyph glyph-name="N" unicode="N" 
d="M131 250c-4 0 -6 2 -6 6v738c0 4 2 6 6 6h363c4 0 6 -2 6 -6v-619h125v619c0 4 2 6 6 6h113c4 0 6 -2 6 -6v-738c0 -4 -2 -6 -6 -6h-363c-4 0 -6 2 -6 6v619h-125v-619c0 -4 -2 -6 -6 -6h-113z" />
    <glyph glyph-name="O" unicode="O" 
d="M131 250c-4 0 -6 2 -6 6v738c0 4 2 6 6 6h613c4 0 6 -2 6 -6v-738c0 -4 -2 -6 -6 -6h-613zM625 875h-375v-500h375v500z" />
    <glyph glyph-name="P" unicode="P" 
d="M131 250c-4 0 -6 2 -6 6v738c0 4 2 6 6 6h613c4 0 6 -2 6 -6v-488c0 -4 -2 -6 -6 -6h-494v-244c0 -4 -2 -6 -6 -6h-113zM625 875h-375v-250h375v250z" />
    <glyph glyph-name="Q" unicode="Q" 
d="M131 250c-4 0 -6 2 -6 6v738c0 4 2 6 6 6h613c4 0 6 -2 6 -6v-738c0 -4 -2 -6 -6 -6h-119v-119c0 -4 -2 -6 -6 -6h-113c-4 0 -6 2 -6 6v119h-369zM625 875h-375v-500h250v119c0 4 2 6 6 6h119v375z" />
    <glyph glyph-name="R" unicode="R" 
d="M131 250c-4 0 -6 2 -6 6v738c0 4 2 6 6 6h613c4 0 6 -2 6 -6v-488c0 -4 -2 -6 -6 -6h-119v-244c0 -4 -2 -6 -6 -6h-113c-4 0 -6 2 -6 6v244h-250v-244c0 -4 -2 -6 -6 -6h-113zM625 875h-375v-250h375v250z" />
    <glyph glyph-name="S" unicode="S" 
d="M131 625c-4 0 -6 2 -6 6v363c0 4 2 6 6 6h613c4 0 6 -2 6 -6v-113c0 -4 -2 -6 -6 -6h-494v-125h494c4 0 6 -2 6 -6v-488c0 -4 -2 -6 -6 -6h-613c-4 0 -6 2 -6 6v113c0 4 2 6 6 6h494v250h-494z" />
    <glyph glyph-name="T" unicode="T" 
d="M131 875c-4 0 -6 2 -6 6v113c0 4 2 6 6 6h613c4 0 6 -2 6 -6v-113c0 -4 -2 -6 -6 -6h-244v-619c0 -4 -2 -6 -6 -6h-113c-4 0 -6 2 -6 6v619h-244z" />
    <glyph glyph-name="U" unicode="U" 
d="M131 250c-4 0 -6 2 -6 6v738c0 4 2 6 6 6h113c4 0 6 -2 6 -6v-619h375v619c0 4 2 6 6 6h113c4 0 6 -2 6 -6v-738c0 -4 -2 -6 -6 -6h-613z" />
    <glyph glyph-name="V" unicode="V" 
d="M131 375c-4 0 -6 2 -6 6v613c0 4 2 6 6 6h113c4 0 6 -2 6 -6v-613c0 -4 -2 -6 -6 -6h-113zM631 375c-4 0 -6 2 -6 6v613c0 4 2 6 6 6h113c4 0 6 -2 6 -6v-613c0 -4 -2 -6 -6 -6h-113zM256 250c-4 0 -6 2 -6 6v113c0 4 2 6 6 6h363c4 0 6 -2 6 -6v-113c0 -4 -2 -6 -6 -6
h-363z" />
    <glyph glyph-name="W" unicode="W" 
d="M131 250c-4 0 -6 2 -6 6v738c0 4 2 6 6 6h113c4 0 6 -2 6 -6v-619h125v619c0 4 2 6 6 6h113c4 0 6 -2 6 -6v-619h125v619c0 4 2 6 6 6h113c4 0 6 -2 6 -6v-738c0 -4 -2 -6 -6 -6h-613z" />
    <glyph glyph-name="X" unicode="X" 
d="M131 875c-4 0 -6 2 -6 6v113c0 4 2 6 6 6h238c4 0 6 -2 6 -6v-238c0 -4 -2 -6 -6 -6h-113c-4 0 -6 2 -6 6v119h-119zM506 750c-4 0 -6 2 -6 6v238c0 4 2 6 6 6h238c4 0 6 -2 6 -6v-113c0 -4 -2 -6 -6 -6h-119v-119c0 -4 -2 -6 -6 -6h-113zM131 250c-4 0 -6 2 -6 6v113
c0 4 2 6 6 6h119v119c0 4 2 6 6 6h119v244c0 4 2 6 6 6h113c4 0 6 -2 6 -6v-244h119c4 0 6 -2 6 -6v-119h119c4 0 6 -2 6 -6v-113c0 -4 -2 -6 -6 -6h-238c-4 0 -6 2 -6 6v119h-125v-119c0 -4 -2 -6 -6 -6h-238z" />
    <glyph glyph-name="Y" unicode="Y" 
d="M131 500c-4 0 -6 2 -6 6v488c0 4 2 6 6 6h113c4 0 6 -2 6 -6v-369h375v369c0 4 2 6 6 6h113c4 0 6 -2 6 -6v-488c0 -4 -2 -6 -6 -6h-244v-244c0 -4 -2 -6 -6 -6h-113c-4 0 -6 2 -6 6v244h-244z" />
    <glyph glyph-name="Z" unicode="Z" 
d="M131 875c-4 0 -6 2 -6 6v113c0 4 2 6 6 6h613c4 0 6 -2 6 -6v-363c0 -4 -2 -6 -6 -6h-494v-250h494c4 0 6 -2 6 -6v-113c0 -4 -2 -6 -6 -6h-613c-4 0 -6 2 -6 6v488c0 4 2 6 6 6h494v125h-494z" />
    <glyph glyph-name="a" unicode="a" 
d="M506 375c-4 0 -6 2 -6 6v113c0 4 2 6 6 6h119v125h-375v-250h244c4 0 6 -2 6 -6v-113c0 -4 -2 -6 -6 -6h-363c-4 0 -6 2 -6 6v488c0 4 2 6 6 6h613c4 0 6 -2 6 -6v-488c0 -4 -2 -6 -6 -6h-113c-4 0 -6 2 -6 6v119h-119z" />
    <glyph glyph-name="b" unicode="b" 
d="M131 250c-4 0 -6 2 -6 6v738c0 4 2 6 6 6h113c4 0 6 -2 6 -6v-244h494c4 0 6 -2 6 -6v-488c0 -4 -2 -6 -6 -6h-613zM625 625h-375v-250h375v250z" />
    <glyph glyph-name="c" unicode="c" 
d="M131 250c-4 0 -6 2 -6 6v488c0 4 2 6 6 6h613c4 0 6 -2 6 -6v-113c0 -4 -2 -6 -6 -6h-494v-250h494c4 0 6 -2 6 -6v-113c0 -4 -2 -6 -6 -6h-613z" />
    <glyph glyph-name="d" unicode="d" 
d="M256 625c-4 0 -6 2 -6 6v113c0 4 2 6 6 6h369v244c0 4 2 6 6 6h113c4 0 6 -2 6 -6v-738c0 -4 -2 -6 -6 -6h-613c-4 0 -6 2 -6 6v363c0 4 2 6 6 6h113c4 0 6 -2 6 -6v-244h375v250h-369z" />
    <glyph glyph-name="e" unicode="e" 
d="M506 375c-4 0 -6 2 -6 6v113c0 4 2 6 6 6h119v125h-375v-250h244c4 0 6 -2 6 -6v-113c0 -4 -2 -6 -6 -6h-363c-4 0 -6 2 -6 6v488c0 4 2 6 6 6h613c4 0 6 -2 6 -6v-363c0 -4 -2 -6 -6 -6h-238z" />
    <glyph glyph-name="f" unicode="f" 
d="M131 625c-4 0 -6 2 -6 6v113c0 4 2 6 6 6h119v244c0 4 2 6 6 6h363c4 0 6 -2 6 -6v-113c0 -4 -2 -6 -6 -6h-244v-744c0 -4 -2 -6 -6 -6h-113c-4 0 -6 2 -6 6v494h-119z" />
    <glyph glyph-name="g" unicode="g" 
d="M131 125c-4 0 -6 2 -6 6v363c0 4 2 6 6 6h119v244c0 4 2 6 6 6h488c4 0 6 -2 6 -6v-113c0 -4 -2 -6 -6 -6h-119v-125h119c4 0 6 -2 6 -6v-363c0 -4 -2 -6 -6 -6h-613zM375 625v-125h125v125h-125zM625 375h-375v-125h375v125z" />
    <glyph glyph-name="h" unicode="h" 
d="M131 250c-4 0 -6 2 -6 6v738c0 4 2 6 6 6h113c4 0 6 -2 6 -6v-244h494c4 0 6 -2 6 -6v-488c0 -4 -2 -6 -6 -6h-113c-4 0 -6 2 -6 6v369h-375v-369c0 -4 -2 -6 -6 -6h-113z" />
    <glyph glyph-name="i" unicode="i" 
d="M381 875c-4 0 -6 2 -6 6v113c0 4 2 6 6 6h113c4 0 6 -2 6 -6v-113c0 -4 -2 -6 -6 -6h-113zM381 250c-4 0 -6 2 -6 6v488c0 4 2 6 6 6h113c4 0 6 -2 6 -6v-488c0 -4 -2 -6 -6 -6h-113z" />
    <glyph glyph-name="j" unicode="j" 
d="M381 875c-4 0 -6 2 -6 6v113c0 4 2 6 6 6h113c4 0 6 -2 6 -6v-113c0 -4 -2 -6 -6 -6h-113zM131 125c-4 0 -6 2 -6 6v238c0 4 2 6 6 6h113c4 0 6 -2 6 -6v-119h125v494c0 4 2 6 6 6h113c4 0 6 -2 6 -6v-613c0 -4 -2 -6 -6 -6h-363z" />
    <glyph glyph-name="k" unicode="k" 
d="M131 250c-4 0 -6 2 -6 6v738c0 4 2 6 6 6h113c4 0 6 -2 6 -6v-244h494c4 0 6 -2 6 -6v-113c0 -4 -2 -6 -6 -6h-244v-250h244c4 0 6 -2 6 -6v-113c0 -4 -2 -6 -6 -6h-363c-4 0 -6 2 -6 6v369h-125v-369c0 -4 -2 -6 -6 -6h-113z" />
    <glyph glyph-name="l" unicode="l" 
d="M131 875c-4 0 -6 2 -6 6v113c0 4 2 6 6 6h238c4 0 6 -2 6 -6v-619h119c4 0 6 -2 6 -6v-113c0 -4 -2 -6 -6 -6h-238c-4 0 -6 2 -6 6v619h-119z" />
    <glyph glyph-name="m" unicode="m" 
d="M506 625c-4 0 -6 2 -6 6v113c0 4 2 6 6 6h238c4 0 6 -2 6 -6v-488c0 -4 -2 -6 -6 -6h-113c-4 0 -6 2 -6 6v369h-119zM131 250c-4 0 -6 2 -6 6v488c0 4 2 6 6 6h238c4 0 6 -2 6 -6v-113c0 -4 -2 -6 -6 -6h-119v-369c0 -4 -2 -6 -6 -6h-113zM381 250c-4 0 -6 2 -6 6v363
c0 4 2 6 6 6h113c4 0 6 -2 6 -6v-363c0 -4 -2 -6 -6 -6h-113z" />
    <glyph glyph-name="n" unicode="n" 
d="M131 250c-4 0 -6 2 -6 6v488c0 4 2 6 6 6h488c4 0 6 -2 6 -6v-113c0 -4 -2 -6 -6 -6h-369v-369c0 -4 -2 -6 -6 -6h-113zM631 250c-4 0 -6 2 -6 6v363c0 4 2 6 6 6h113c4 0 6 -2 6 -6v-363c0 -4 -2 -6 -6 -6h-113z" />
    <glyph glyph-name="o" unicode="o" 
d="M131 250c-4 0 -6 2 -6 6v488c0 4 2 6 6 6h613c4 0 6 -2 6 -6v-488c0 -4 -2 -6 -6 -6h-613zM625 625h-375v-250h375v250z" />
    <glyph glyph-name="p" unicode="p" 
d="M131 125c-4 0 -6 2 -6 6v613c0 4 2 6 6 6h613c4 0 6 -2 6 -6v-488c0 -4 -2 -6 -6 -6h-494v-119c0 -4 -2 -6 -6 -6h-113zM625 625h-375v-250h375v250z" />
    <glyph glyph-name="q" unicode="q" 
d="M131 250c-4 0 -6 2 -6 6v488c0 4 2 6 6 6h613c4 0 6 -2 6 -6v-613c0 -4 -2 -6 -6 -6h-113c-4 0 -6 2 -6 6v119h-494zM625 625h-375v-250h375v250z" />
    <glyph glyph-name="r" unicode="r" 
d="M631 625c-4 0 -6 2 -6 6v113c0 4 2 6 6 6h113c4 0 6 -2 6 -6v-113c0 -4 -2 -6 -6 -6h-113zM131 250c-4 0 -6 2 -6 6v488c0 4 2 6 6 6h113c4 0 6 -2 6 -6v-119h369c4 0 6 -2 6 -6v-113c0 -4 -2 -6 -6 -6h-369v-244c0 -4 -2 -6 -6 -6h-113z" />
    <glyph glyph-name="s" unicode="s" 
d="M131 500c-4 0 -6 2 -6 6v363c0 4 2 6 6 6h613c4 0 6 -2 6 -6v-113c0 -4 -2 -6 -6 -6h-494v-125h494c4 0 6 -2 6 -6v-363c0 -4 -2 -6 -6 -6h-613c-4 0 -6 2 -6 6v113c0 4 2 6 6 6h494v125h-494z" />
    <glyph glyph-name="t" unicode="t" 
d="M131 625c-4 0 -6 2 -6 6v113c0 4 2 6 6 6h119v244c0 4 2 6 6 6h113c4 0 6 -2 6 -6v-244h244c4 0 6 -2 6 -6v-113c0 -4 -2 -6 -6 -6h-244v-250h369c4 0 6 -2 6 -6v-113c0 -4 -2 -6 -6 -6h-488c-4 0 -6 2 -6 6v369h-119z" />
    <glyph glyph-name="u" unicode="u" 
d="M131 250c-4 0 -6 2 -6 6v488c0 4 2 6 6 6h113c4 0 6 -2 6 -6v-369h375v369c0 4 2 6 6 6h113c4 0 6 -2 6 -6v-488c0 -4 -2 -6 -6 -6h-613z" />
    <glyph glyph-name="v" unicode="v" 
d="M131 375c-4 0 -6 2 -6 6v363c0 4 2 6 6 6h113c4 0 6 -2 6 -6v-363c0 -4 -2 -6 -6 -6h-113zM631 375c-4 0 -6 2 -6 6v363c0 4 2 6 6 6h113c4 0 6 -2 6 -6v-363c0 -4 -2 -6 -6 -6h-113zM256 250c-4 0 -6 2 -6 6v113c0 4 2 6 6 6h363c4 0 6 -2 6 -6v-113c0 -4 -2 -6 -6 -6
h-363z" />
    <glyph glyph-name="w" unicode="w" 
d="M131 375c-4 0 -6 2 -6 6v363c0 4 2 6 6 6h113c4 0 6 -2 6 -6v-363c0 -4 -2 -6 -6 -6h-113zM381 375c-4 0 -6 2 -6 6v238c0 4 2 6 6 6h113c4 0 6 -2 6 -6v-238c0 -4 -2 -6 -6 -6h-113zM631 375c-4 0 -6 2 -6 6v363c0 4 2 6 6 6h113c4 0 6 -2 6 -6v-363c0 -4 -2 -6 -6 -6
h-113zM256 250c-4 0 -6 2 -6 6v113c0 4 2 6 6 6h113c4 0 6 -2 6 -6v-113c0 -4 -2 -6 -6 -6h-113zM506 250c-4 0 -6 2 -6 6v113c0 4 2 6 6 6h113c4 0 6 -2 6 -6v-113c0 -4 -2 -6 -6 -6h-113z" />
    <glyph glyph-name="x" unicode="x" 
d="M131 625c-4 0 -6 2 -6 6v113c0 4 2 6 6 6h238c4 0 6 -2 6 -6v-113c0 -4 -2 -6 -6 -6h-238zM506 625c-4 0 -6 2 -6 6v113c0 4 2 6 6 6h238c4 0 6 -2 6 -6v-113c0 -4 -2 -6 -6 -6h-238zM381 375c-4 0 -6 2 -6 6v238c0 4 2 6 6 6h113c4 0 6 -2 6 -6v-238c0 -4 -2 -6 -6 -6
h-113zM131 250c-4 0 -6 2 -6 6v113c0 4 2 6 6 6h238c4 0 6 -2 6 -6v-113c0 -4 -2 -6 -6 -6h-238zM506 250c-4 0 -6 2 -6 6v113c0 4 2 6 6 6h238c4 0 6 -2 6 -6v-113c0 -4 -2 -6 -6 -6h-238z" />
    <glyph glyph-name="y" unicode="y" 
d="M256 625c-4 0 -6 2 -6 6v113c0 4 2 6 6 6h113c4 0 6 -2 6 -6v-113c0 -4 -2 -6 -6 -6h-113zM381 500c-4 0 -6 2 -6 6v113c0 4 2 6 6 6h113c4 0 6 -2 6 -6v-113c0 -4 -2 -6 -6 -6h-113zM506 375c-4 0 -6 2 -6 6v113c0 4 2 6 6 6h119v244c0 4 2 6 6 6h113c4 0 6 -2 6 -6
v-613c0 -4 -2 -6 -6 -6h-113c-4 0 -6 2 -6 6v244h-119z" />
    <glyph glyph-name="z" unicode="z" 
d="M131 750c-4 0 -6 2 -6 6v113c0 4 2 6 6 6h488c4 0 6 -2 6 -6v-363c0 -4 -2 -6 -6 -6h-119v-125h244c4 0 6 -2 6 -6v-113c0 -4 -2 -6 -6 -6h-363c-4 0 -6 2 -6 6v244h-119c-4 0 -6 2 -6 6v113c0 4 2 6 6 6h244v125h-369z" />
    <glyph glyph-name="nbspace" unicode="&#xa0;" 
 />
    <glyph glyph-name=".null" horiz-adv-x="0" 
 />
    <glyph glyph-name="nonmarkingreturn" 
 />
  </font>
</defs>
</svg>
